<svg width="1251" height="810" viewBox="0 0 1251 810" fill="none" xmlns="http://www.w3.org/2000/svg">
<g clip-path="url(#clip0_617_1010)">
<path d="M49 481H0V593H49V481Z" fill="#F1FFE3"/>
<path d="M245 342H196V454H245V342Z" fill="#F1FFE3"/>
<path d="M368 633H319V745H368V633Z" fill="#F1FFE3"/>
<path d="M540 342H491V454H540V342Z" fill="#F1FFE3"/>
<path d="M687 633H638V745H687V633Z" fill="#F1FFE3"/>
<path d="M859 342H810V454H859V342Z" fill="#F1FFE3"/>
<path d="M1006 633H957V745H1006V633Z" fill="#F1FFE3"/>
<path d="M1153 326H1104V438H1153V326Z" fill="#F1FFE3"/>
<path d="M98 155H49V267H98V155Z" fill="#D2EFFF"/>
<path d="M294 16H245V128H294V16Z" fill="#D2EFFF"/>
<path d="M417 307H368V419H417V307Z" fill="#D2EFFF"/>
<path d="M589 16H540V128H589V16Z" fill="#D2EFFF"/>
<path d="M736 307H687V419H736V307Z" fill="#D2EFFF"/>
<path d="M908 16H859V128H908V16Z" fill="#D2EFFF"/>
<path d="M1055 307H1006V419H1055V307Z" fill="#D2EFFF"/>
<path d="M1202 0H1153V112H1202V0Z" fill="#D2EFFF"/>
<path d="M147 334H98V446H147V334Z" fill="#D2FFED"/>
<path d="M343 195H294V307H343V195Z" fill="#D2FFED"/>
<path d="M466 486H417V598H466V486Z" fill="#D2FFED"/>
<path d="M638 195H589V307H638V195Z" fill="#D2FFED"/>
<path d="M785 486H736V598H785V486Z" fill="#D2FFED"/>
<path d="M957 195H908V307H957V195Z" fill="#D2FFED"/>
<path d="M1104 486H1055V598H1104V486Z" fill="#D2FFED"/>
<path d="M1251 179H1202V291H1251V179Z" fill="#D2FFED"/>
<path d="M147 546H98V658H147V546Z" fill="#FFE0FA"/>
<path d="M343 407H294V519H343V407Z" fill="#FFE0FA"/>
<path d="M466 698H417V810H466V698Z" fill="#FFE0FA"/>
<path d="M638 407H589V519H638V407Z" fill="#FFE0FA"/>
<path d="M785 698H736V810H785V698Z" fill="#FFE0FA"/>
<path d="M957 407H908V519H957V407Z" fill="#FFE0FA"/>
<path d="M1104 698H1055V810H1104V698Z" fill="#FFE0FA"/>
<path d="M1251 391H1202V503H1251V391Z" fill="#FFE0FA"/>
</g>
<defs>
<clipPath id="clip0_617_1010">
<rect width="1251" height="810" fill="white"/>
</clipPath>
</defs>
</svg>
